<?xml version="1.0" encoding="UTF-8" standalone="no"?>
<!-- Created with Inkscape (http://www.inkscape.org/) -->

<svg
   xmlns:dc="http://purl.org/dc/elements/1.1/"
   xmlns:cc="http://creativecommons.org/ns#"
   xmlns:rdf="http://www.w3.org/1999/02/22-rdf-syntax-ns#"
   xmlns:svg="http://www.w3.org/2000/svg"
   xmlns="http://www.w3.org/2000/svg"
   xmlns:sodipodi="http://sodipodi.sourceforge.net/DTD/sodipodi-0.dtd"
   xmlns:inkscape="http://www.inkscape.org/namespaces/inkscape"
   width="200"
   height="200"
   viewBox="0 0 200 200"
   id="svg2"
   version="1.1"
   inkscape:version="0.91 r13725"
   sodipodi:docname="deeplearning_ai.svg">
  <defs
     id="defs4" />
  <sodipodi:namedview
     id="base"
     pagecolor="#ffffff"
     bordercolor="#666666"
     borderopacity="1.0"
     inkscape:pageopacity="0.0"
     inkscape:pageshadow="2"
     inkscape:zoom="0.7"
     inkscape:cx="159.28571"
     inkscape:cy="291.42857"
     inkscape:document-units="px"
     inkscape:current-layer="layer1"
     showgrid="false"
     units="px"
     inkscape:window-width="1280"
     inkscape:window-height="756"
     inkscape:window-x="0"
     inkscape:window-y="0"
     inkscape:window-maximized="1" />
  <metadata
     id="metadata7">
    <rdf:RDF>
      <cc:Work
         rdf:about="">
        <dc:format>image/svg+xml</dc:format>
        <dc:type
           rdf:resource="http://purl.org/dc/dcmitype/StillImage" />
        <dc:title></dc:title>
      </cc:Work>
    </rdf:RDF>
  </metadata>
  <g
     inkscape:label="Capa 1"
     inkscape:groupmode="layer"
     id="layer1"
     transform="translate(0,-852.36216)">
    <g
       id="g4216"
       transform="translate(1.8885587,2.8832543)">
      <path
         style="fill:#ff4a61;fill-opacity:1"
         d="m 84.85714,1040.8789 c -7.95828,-1.5172 -18.48977,-4.6772 -24.34891,-7.306 C 34.9128,1022.089 16.2147,999.95398 8.6215401,972.14889 c -1.85619,-6.79712 -2.2143,-10.62424 -2.16563,-23.1438 0.069,-17.75697 1.85709,-25.87289 8.8126199,-40 11.83939,-24.04653 32.32116,-41.20459 58.08861,-48.66219 10.78297,-3.1208 36.08622,-3.3779 47.00001,-0.47756 35.33491,9.39027 61.70528,38.20347 67.99981,74.29902 2.00518,11.49852 1.89012,20.2583 -0.4228,32.1898 -3.80795,19.64382 -12.86794,36.05584 -27.6047,50.00534 -17.41507,16.4849 -35.68958,23.9952 -59.97231,24.647 -7.15001,0.192 -14.12501,0.1345 -15.50001,-0.1276 z m 30.37242,-39.0374 c 18.29741,-4.53225 34.34915,-17.5636 43.52661,-35.33641 6.17829,-11.96468 7.49118,-17.62752 7.53492,-32.5 0.0548,-18.62942 -3.30935,-28.9844 -13.96991,-43 -8.95349,-11.77128 -19.98614,-19.6244 -33.96403,-24.17583 -6.52854,-2.12579 -10.02326,-2.62095 -19,-2.69203 -12.70635,-0.10063 -20.29524,1.5699 -31.00001,6.82396 -28.2377,13.85949 -44.27358,48.64795 -36.47711,79.13394 5.60062,21.8997 18.19157,37.68483 37.80819,47.3997 13.38703,6.62977 29.94418,8.21007 45.54134,4.34667 z M 82.16451,986.59 c -10.32169,-2.53694 -19.54254,-7.60479 -27.69961,-15.22392 -7.81939,-7.3037 -12.52114,-14.35101 -16.42537,-24.61944 -2.2521,-5.92319 -2.56433,-8.25892 -2.57212,-19.24155 -0.007,-10.4771 0.36129,-13.55191 2.27838,-19 6.95754,-19.77226 23.78565,-35.22978 44.11135,-40.51862 10.10886,-2.63038 24.58933,-2.24616 34.50001,0.9154 44.95237,14.34005 59.06623,67.98385 26.49391,100.69767 -15.88937,15.9584 -38.79467,22.37121 -60.68655,16.99046 z m 28.8373,-26.04904 c 16.68438,-5.15633 28.93336,-18.98014 31.89507,-35.99577 4.64999,-26.71512 -17.99827,-52.0401 -46.53973,-52.0401 -23.13282,0 -43.10561,16.75407 -46.57837,39.07202 -3.29797,21.19459 10.30184,42.09906 31.87606,48.99718 7.92613,2.53429 21.08728,2.51934 29.34697,-0.0333 z m -23.14467,-6.98283 c -18.09965,-5.6113 -28.85058,-21.62565 -27.81128,-41.42703 1.76991,-33.72119 40.85646,-49.52858 63.25577,-25.58191 13.07061,13.97354 14.60463,35.99166 3.62343,52.00781 -4.38359,6.39351 -12.44108,12.38749 -19.45003,14.46893 -5.25554,1.56073 -15.4116,1.83624 -19.61789,0.5322 z m 16.57075,-35.94585 c 7.14802,-3.24656 13.16748,-13.33687 11.88066,-19.91534 -0.18201,-0.93052 -0.58954,-2.9211 -0.90562,-4.42351 -0.31607,-1.50241 -1.98807,-4.34142 -3.71555,-6.30891 -10.97511,-12.49997 -29.80885,-8.66045 -34.36303,7.00538 -1.2496,4.29846 -1.33058,6.19214 -0.41953,9.81024 2.22162,8.82285 10.72919,15.68103 19.45233,15.68103 2.2,0 5.83183,-0.832 8.07074,-1.84889 z"
         id="path4224"
         inkscape:connector-curvature="0" />
    </g>
  </g>
</svg>
